<?xml version="1.0" encoding="UTF-8"?>
<svg id="Layer_2" data-name="Layer 2" xmlns="http://www.w3.org/2000/svg" viewBox="0 0 349.92 69.29">
  <defs>
    <style>
      .cls-1 {
        fill: #de5826;
      }

      .cls-2 {
        fill: #094b7b;
      }

      .cls-3 {
        fill: #df5a26;
      }

      .cls-4 {
        fill: #044c7b;
      }
    </style>
  </defs>
  <g id="Layer_3" data-name="Layer 3">
    <g>
      <path class="cls-2" d="M59.29,29.51c0,3.04-.46,5.98-1.32,8.73-.42,1.4-.96,2.75-1.59,4.04,0,0,0,.01,0,.02-1.6,2.81-4.22,6.1-7.22,9.43-5.79,6.44-12.99,13.04-17.02,16.61-1.41,1.25-3.54,1.25-4.95,0-4.03-3.57-11.23-10.17-17.02-16.61-.01-.01-.02-.02-.03-.03,2.81.25,5.74.39,8.76.39,4.34,0,8.49-.27,12.35-.78,1.09-.09,2.15-.25,3.19-.48,4.04-.91,7.64-2.95,10.47-5.78,2.26-2.26,4.03-5.03,5.11-8.13.5-1.45.86-2.96,1.05-4.53.1-.85.15-1.71.15-2.59,0-11.9-9.65-21.55-21.56-21.55-8.12,0-15.19,4.49-18.87,11.12-1.13,2.03-1.93,4.26-2.36,6.63-.22,1.23-.33,2.5-.33,3.8,0,7.12,3.45,13.44,8.78,17.36-1.64-.2-3.31-.44-4.99-.74-2.52-.44-4.96-.96-7.3-1.55-.63-.9-1.19-1.76-1.65-2.58,0,0,0-.01,0-.02-.63-1.29-1.16-2.64-1.59-4.04-.86-2.76-1.32-5.69-1.32-8.73,0-.73.03-1.45.08-2.16.22-3,.89-5.88,1.95-8.56C6.33,7.79,17.08,0,29.64,0c16.37,0,29.64,13.21,29.64,29.51Z"/>
      <polygon class="cls-1" points="34.6 24.64 45.14 26.47 37.48 33.93 38.99 44.52 29.53 39.54 19.93 44.25 21.74 33.71 14.29 26.04 24.87 24.5 29.87 15.05 34.6 24.64"/>
    </g>
  </g>
  <g id="Layer_5" data-name="Layer 5">
    <path class="cls-3" d="M91.72,39.43l-3.81-11.16c-.28-.71-.58-1.54-.9-2.49-.32-.97-.64-2.01-.96-3.13-.28,1.14-.58,2.19-.9,3.16-.32.97-.62,1.81-.9,2.52l-3.78,11.1h11.26ZM106.87,55.01h-7.39c-.83,0-1.5-.19-2-.56-.51-.39-.89-.89-1.16-1.48l-2.43-7.1h-15.63l-2.43,7.1c-.21.52-.58,1-1.13,1.43-.53.41-1.18.62-1.97.62h-7.45l15.91-40.75h9.76l15.91,40.75ZM117.27,30.48c.9-1.57,1.94-2.8,3.1-3.69,1.18-.89,2.54-1.34,4.06-1.34,1.32,0,2.39.31,3.22.92l-.56,6.38c-.09.41-.25.69-.48.84-.21.15-.5.22-.87.22-.15,0-.35,0-.59-.03-.24-.02-.5-.04-.76-.06-.26-.04-.54-.07-.82-.08-.26-.04-.51-.06-.73-.06-1.28,0-2.3.34-3.07,1.01-.75.67-1.39,1.6-1.92,2.8v17.62h-8.74v-29h5.19c.43,0,.79.04,1.07.11.3.07.55.2.73.36.21.15.36.35.45.62.11.26.21.58.28.95l.45,2.43ZM143.62,25.56c2.22,0,4.24.34,6.06,1.03s3.39,1.68,4.68,2.96c1.32,1.29,2.33,2.85,3.05,4.7.73,1.83,1.1,3.89,1.1,6.18s-.37,4.4-1.1,6.26c-.71,1.85-1.73,3.42-3.05,4.73s-2.86,2.28-4.68,2.99c-1.82.69-3.85,1.03-6.06,1.03s-4.28-.34-6.12-1.03c-1.82-.71-3.4-1.71-4.74-2.99-1.32-1.31-2.34-2.88-3.07-4.73-.71-1.86-1.07-3.95-1.07-6.26s.36-4.35,1.07-6.18c.73-1.85,1.76-3.41,3.07-4.7,1.34-1.29,2.91-2.27,4.74-2.96,1.84-.69,3.88-1.03,6.12-1.03ZM143.62,49.02c2.01,0,3.49-.7,4.43-2.1.96-1.42,1.44-3.56,1.44-6.43s-.48-5.01-1.44-6.4c-.94-1.4-2.42-2.1-4.43-2.1s-3.58.7-4.54,2.1c-.96,1.4-1.44,3.53-1.44,6.4s.48,5.02,1.44,6.43c.96,1.4,2.47,2.1,4.54,2.1ZM189.15,26.01v29h-5.42c-1.09,0-1.81-.48-2.14-1.45l-.51-1.68c-.56.54-1.15,1.03-1.75,1.48-.6.43-1.25.8-1.95,1.12-.68.3-1.42.53-2.23.7-.79.19-1.65.28-2.6.28-1.6,0-3.02-.27-4.26-.81-1.22-.56-2.26-1.33-3.1-2.32s-1.49-2.15-1.92-3.5c-.43-1.34-.65-2.82-.65-4.42v-18.4h8.74v18.4c0,1.44.33,2.54.99,3.33.66.78,1.63,1.17,2.91,1.17.96,0,1.85-.2,2.68-.59.85-.41,1.66-.96,2.45-1.65v-20.67h8.74ZM203.16,29.14c.56-.52,1.15-1.01,1.75-1.45.6-.45,1.24-.82,1.92-1.12.7-.32,1.44-.56,2.23-.73.81-.19,1.68-.28,2.62-.28,1.6,0,3.01.28,4.23.84,1.24.54,2.28,1.31,3.13,2.29.85.97,1.49,2.13,1.92,3.5.43,1.34.65,2.81.65,4.39v18.43h-8.74v-18.43c0-1.42-.33-2.52-.99-3.3-.66-.8-1.63-1.2-2.91-1.2-.96,0-1.86.21-2.71.62-.83.39-1.64.93-2.43,1.62v20.7h-8.74v-29h5.42c1.09,0,1.81.48,2.14,1.45l.51,1.68ZM245.02,33.78c-.66-.73-1.37-1.23-2.14-1.51-.77-.3-1.58-.45-2.43-.45s-1.55.16-2.23.48c-.68.32-1.27.83-1.78,1.54-.49.69-.87,1.59-1.16,2.71s-.42,2.47-.42,4.06.11,2.82.34,3.86c.23,1.04.54,1.89.93,2.54.41.63.9,1.09,1.47,1.37s1.19.42,1.89.42c.64,0,1.21-.06,1.72-.17.53-.13,1.01-.31,1.44-.53.43-.22.84-.5,1.21-.84.39-.35.78-.76,1.16-1.2v-12.28ZM253.76,13.14v41.87h-5.42c-1.09,0-1.81-.48-2.14-1.45l-.68-2.21c-.58.62-1.19,1.17-1.83,1.68-.64.5-1.34.94-2.09,1.31-.73.35-1.53.62-2.4.81-.85.21-1.77.31-2.76.31-1.52,0-2.93-.34-4.23-1.01-1.3-.67-2.42-1.64-3.36-2.91-.94-1.27-1.68-2.82-2.23-4.64-.53-1.85-.79-3.94-.79-6.29,0-2.16.3-4.17.9-6.01.6-1.86,1.45-3.47,2.54-4.81,1.11-1.36,2.44-2.42,3.98-3.19s3.24-1.15,5.11-1.15c1.52,0,2.8.21,3.84.64,1.03.43,1.97,1.01,2.82,1.73v-14.68h8.74Z"/>
    <path class="cls-4" d="M280.37,39.51v15.49h-9.53v-15.49l-14.89-25.25h8.41c.83,0,1.48.2,1.95.59.49.37.89.86,1.21,1.45l5.81,11.86c.49.93.93,1.81,1.33,2.63.39.8.74,1.59,1.04,2.38.28-.8.6-1.6.96-2.41.38-.82.81-1.69,1.3-2.6l5.75-11.86c.13-.24.29-.48.48-.73.19-.24.4-.46.65-.64.26-.21.55-.36.87-.48.34-.13.71-.2,1.1-.2h8.46l-14.89,25.25ZM304.39,25.56c2.22,0,4.24.34,6.06,1.03s3.39,1.68,4.68,2.96c1.32,1.29,2.33,2.85,3.05,4.7.73,1.83,1.1,3.89,1.1,6.18s-.37,4.4-1.1,6.26c-.71,1.85-1.73,3.42-3.05,4.73-1.3,1.29-2.86,2.28-4.68,2.99-1.82.69-3.85,1.03-6.06,1.03s-4.28-.34-6.12-1.03c-1.82-.71-3.4-1.71-4.74-2.99-1.32-1.31-2.34-2.88-3.07-4.73-.71-1.86-1.07-3.95-1.07-6.26s.36-4.35,1.07-6.18c.73-1.85,1.76-3.41,3.07-4.7,1.34-1.29,2.91-2.27,4.74-2.96,1.84-.69,3.88-1.03,6.12-1.03ZM304.39,49.02c2.01,0,3.49-.7,4.43-2.1.96-1.42,1.44-3.56,1.44-6.43s-.48-5.01-1.44-6.4c-.94-1.4-2.42-2.1-4.43-2.1s-3.58.7-4.54,2.1c-.96,1.4-1.44,3.53-1.44,6.4s.48,5.02,1.44,6.43c.96,1.4,2.47,2.1,4.54,2.1ZM349.92,26.01v29h-5.42c-1.09,0-1.81-.48-2.14-1.45l-.51-1.68c-.56.54-1.15,1.03-1.75,1.48-.6.43-1.25.8-1.95,1.12-.68.3-1.42.53-2.23.7-.79.19-1.65.28-2.6.28-1.6,0-3.02-.27-4.26-.81-1.22-.56-2.26-1.33-3.1-2.32-.85-.99-1.49-2.15-1.92-3.5s-.65-2.82-.65-4.42v-18.4h8.74v18.4c0,1.44.33,2.54.99,3.33.66.78,1.63,1.17,2.91,1.17.96,0,1.85-.2,2.68-.59.85-.41,1.66-.96,2.45-1.65v-20.67h8.74Z"/>
  </g>
</svg>